<svg version="1.2" xmlns="http://www.w3.org/2000/svg" viewBox="0 0 1913 130" width="1913" height="130">
	<style>
		.s0 { fill: #96d4d4 } 
	</style>
	<g id="Layer 1">
		<path class="s0" d="m1900.43 25.48c-1.55 1.87-3.92 0.56-5.77 1.2-0.65-0.41-0.94-1.16-1.93-0.94-1.88 2.08-4.91 1.87-7.29 3.12-0.42-0.05-0.5-0.97-1.25-0.26l-0.97 1.2-1.55-2.6c-1.97 2.5-5.17 0.13-6.89 2.41-1.07-1.41-3.19-0.13-4.21-1.64-0.48 0.41-0.72 1.06-1.54 1.08-3.68 0.07-6.89-1.83-10.28-2.42-2.52 2.39-6.31-0.04-8.83 2.81-2.01-2.98-5.39 0.42-7.61-1.94-2.71 1.35-5.58 0.52-7.71-0.73-2.63-1.54-5.62 0.84-7.72-1.63l-1.69 1.31c-1.24-0.06-2.4-1.77-3.56-0.76-1.43 1.26-3.01 1.18-4.58 1.14-1.6-0.03-2.79 0.87-3.8 1.68-1.45 1.15-2.48 2.82-4.48 1.01-2.49 1.77-5.08-0.74-7.62 0.2-0.71 0.26-1.5 0.15-2.29-0.44-1.13-0.85-2.45-0.21-4.01 0.03l-1.42 2.47-1.43-2.09c-2.36-1.09-2.96 0.99-4.26 0.82-2.39-1.62-4.58-0.96-6.85 0.42-0.34-0.24-0.73-0.76-1.1-0.74-4.44 0.18-8.89 0.45-13.96 0.73l-1.06 2.04c-2.2-0.89-3.95-1.82-5.76-0.22-1.22 1.08-3.32-0.29-4.36 1.64-0.87 1.63-3.51 0.79-4.29 2.74-3.04 0.31-5.65 2.92-9.1 1.34-1.73-0.79-4.12-0.82-5.58 0.4-1.85 1.54-2.98-0.05-4.11-0.21l-5.35 2.29c-1.66-1.67-3.19-0.99-4.59 0.32-1.67-1.17-3.41-1.55-4.97-0.33-0.93 0.72-1.85 0.6-2.78 0.62-3.41 0.06-6.45 1.39-9.57 2.57l-1.33-1.09q-0.8 1.16-1.6 2.3l-8.17 0.45-0.59 1.69c-1.54 0.74-1.76-0.73-2.74-0.55-0.95-0.3-0.96 1.28-1.95 1.09-0.53 0.51-1.17 0.64-1.81 0.36-4.87-2.11-9.65-1.19-14.56 0.07-3.48 0.89-7.28 1.34-10.75 0.61-8.64-1.81-14.31 1.17-22.51 2.43-0.67 0.04-3.27-0.59-3.93-0.55-0.35-1.43-2.15-0.74-2.98-1.88-2.25 0.63-4.89-0.56-6.93 1.39-0.54-0.28-0.83-0.99-1.65-0.85-2.75 0.47-5.42-0.04-7.93-1.1-1.49-0.63-3.23-0.69-4.27-0.11-3.59 2.01-7.11 1.25-10.26 0.44-1.91 0.15-2 2.18-3.81 2.22-1.65 0.86-2.03-1.58-3.45-1.81-1.7 0.09-3.39 0-5.01 0.33-1.72 0.34-2.87-1.24-4.66-0.87-2.69 0.56-5.45 0.45-7.48-1.72-2.08 1.69-4.01-0.07-5.95 0.46-2.07 0.57-4.13 0.02-5.73-1.5-3.4-0.73-6.08 2.14-9.22 1.35-0.39 0.95-0.06 1.72-0.8 2.08-0.95 0.45-1.34-0.61-2.07-0.77-0.54 1.15-1.62 0.96-2.58 1.03-1.14 0.08-2.28 0.13-3.26 0.18l-2.57 2.89c-1.32 0.65-2.74-0.17-3.54 0.84-1.3 1.65-3.22-0.81-4.4 0.85-4.31-1.43-8.49-1.05-12.68 0.64-0.79 0.32-1.85 0.28-2.87-0.05-3.18-1.03-6.44-1.78-10.21-1.07-0.51-0.67-1.11-1.46-1.45-1.91-2.12 0-3.81 0.24-5.4-0.06-9.42-1.76-14.99-2.57-21.14-1.61-0.49 0.08-1.1 0.26-1.48 0.06-2.54-1.32-5.43-1.4-8.1-1.97-2.87-0.61-5.18-2.05-7.77-3.04-0.99-0.38-1.55-1.13-2.4-1.51-3.71-1.67-8.06-0.62-11.69-2.7-3.41 2.22-7.4 0.6-10.98 1.67l-1.73 1.93c-3.25 0.18-6.57 0.46-9.89 0.52-3.35 0.06-5.58 2.69-8.63 3.66l-2.99-2.42c-0.62 1.62-2.54 1.18-3.26 2.56-4.85 0.53-9.6 0.77-14.03-1.94-0.97-0.6-2.57-0.49-3.62 0.52-1 0.95-2.58 0.93-3.22 0.52-1.58-1.03-3.16-0.86-4.69-0.57-1.73 0.32-3.12-1.09-4.63-0.75-2.83 0.63-5.49-0.47-8.12-0.85-1.86-0.27-3.96-0.23-5.92-1.16-2.32-1.11-5.09-1.79-7.65-1.72-2.82 0.07-5.82-0.71-8.62 1.19-0.97 0.66-3.09 0.96-4.67-0.28-0.92-0.72-2.2-0.17-3.32-0.05l-1.67 1.87c-1.27 0.61-3.07-0.4-4 1.28-3.86 0.78-7.49 2.54-11.5 2.75-1.09 0.06-2.12-0.03-3.21 0.81-1.33 1.02-2.92 0.43-4.48-0.34-1.69-0.84-2.96 2.1-4.91 0.98-0.28-0.16-0.48-0.59-0.75-0.64-2.84-0.44-5.76-1.42-8.53-1.1-4.59 0.52-9.15 1.52-13.74 2.22-5.81 0.88-11.86-0.42-17.51 1.95-0.58 0.24-1.56 0.4-1.94 0.09-1.89-1.53-4.26-0.86-6.36-1.45-2.12-0.6-4.61 0.1-6.94 0.22-1.48 0.51-2.25 2.24-4.05 2.25-1.66 0-3.45 0.59-4.96 0.15-1.79-0.52-2.97 2.82-4.74 0.49-1.32 2.17-2.76 0.06-4.12 0.05-5.55-0.06-10.84 1.29-15.92 3.21-1.24 0.47-2.42 0.95-3.64 0.88-2.67-0.15-5.09 0.77-7.37 1.79-2.22 1-4.16 1.02-6.45 0.42-7.97-2.11-6.92-2.87-15.28 0.21-3.03 1.12-5.79 3.31-9.73 2.64-0.34 0.81-0.65 1.55-0.9 2.14-2.13-1.31-4.02-1.09-5.72-0.03-1.27 0.79-2.88 0.91-3.75 0.49-2.35-1.14-4.78-0.28-7.04-0.66-0.67-2.88-3.04-3.46-5.12-3.45-2.61 0.02-5.05-0.38-7.4-1.33-0.67-0.27-1.25-0.31-1.86-0.26-2.49 0.22-4.15-1.34-5.91-2.69-2.23 0.04-4.53 0.76-6.86-1.04-0.37 1.86-1.69 1.4-2.79 1.59-1.25 0.21-2.93-0.74-3.4-0.4-1.26 0.92-2.53 0.57-3.76 0.75-1.31 0.19-2.66 0.23-3.99 0.23-3.09 0.01-5.84 1.95-8.99 1.56-1.35 1.78-3.57 1.55-5 1.09-3.12-1-6.12-0.34-9.17-0.36-0.65 0-1.32 0.08-1.93-0.08-3.39-0.93-6.82-1.62-10.33-1.22-4.73 0.54-9.4-1.23-14.12-0.24-0.64 0.13-0.84-0.58-1.25-0.62-2.88-0.29-5.26-1.81-8.47-3.06-2.31 1-6.2 2.59-7.02 3.39-2.68 1.72-5.43-1.79-8.08 0.36-2.24-1.65-5.11 0.6-7.44-1.22-0.46-0.36-1.78-0.02-2.76 0.41-3.2 1.4-6.62 1.31-10 0.73-1.99-0.34-3.96-0.79-5.94-1.2-1.94 2.26-4.1 0.37-6.16 0.34-3.17 2.13-6.77 2.64-10.32 2.55-1.28 1.33-2.58 1.57-4.25 1.71-1.52 0.12-3.26 1.22-4.56 2.04-1.76 1.12-3.5 0.49-5.11 1.15-0.92 1.19-2.38 1.43-3.59 2.16l-1.2-0.94c-0.56 0.21-0.67 1.13-2.01 0.93-2.61-2.25-6.5-2.24-10.24-3.41l-1.53 2.18c-1.98 0.11-4.22-0.42-5.16 0.45-1.21 1.13-3.06 0.29-3.81 1.82-1.08-0.75-2.29-0.71-3.53-0.6-1.49 0.13-2.99 0.17-4.49 0.26-0.63 0.04-0.76-1.03-1.74-0.6-0.17 0.03-0.14 0.98-0.81 0.45-0.64-0.8 0.22-2.05-1.26-2.88-4.71 2.16-9.88 3.9-15.46 4.84-1.48-1.44-3.39-0.22-5.27-0.54-0.62 0.92-1.09 1.6-1.57 2.31-3.63-0.82-6.57 1.94-9.98 1.34-0.28 0.8-0.48 1.38-0.69 1.96-0.61 0.26-1.19 0.37-1.6-0.31 0.36-0.52 1.04-0.87 0.78-1.88-0.19-0.21-0.52-0.55-0.83-0.9-1.1-1.24-2.84 0.15-3.67-0.58-1.42-1.26-2.87-0.79-4.21-0.57-1.26 0.21-2.41-1.09-3.37-0.34-1.43 1.13-2.87-0.46-3.76 0.02-3.77 2.01-7.05 0.17-10.84-0.92 0.06 1.7-1.55 1.2-2.47 1.67-1.91 0.98-4.14 1.33-6.24 1.94-2.76-1.99-5.76-0.16-8.63-0.52-1.04-0.13-1.23 1.74-2.52 1.07l-2.08-1.87c-3.54 0.67-7.49-0.4-11.12 1.43l-1.96-1.75c-0.65 1.75-2.49 1.62-3.37 1.17-2.42-1.23-4.8-0.37-7.18-0.51-2.87-0.17-5.82 1.2-8.65-0.46-0.43-0.25-1.57-0.09-1.83 0.28-0.87 1.22-2.1 0.98-3.16 0.91-2.74-0.18-4.93 0.97-6.89 2.46-1.24-0.19-2.1-0.86-3.29-0.97-1.84-0.17-3.41 1.36-5.23 0.56-1.13 1.77-3.43 0.23-4.69 1.69-0.76 0.89-1.91 0.62-2.79 0.49-1.21-0.18-2.24-1.19-3.65-0.75-1.07 0.33-2.34-0.27-3.31 0.58-0.85 0.75-1.91-0.06-2.97 0.65-0.95 0.65-2.7 0.59-3.93-0.54l-1.61 1.98c-0.44-0.34-0.89-0.95-1.2-0.88-2.2 0.45-4.51-0.44-6.69 1.01-1.23 0.82-3.16 1.01-4.63 0.03-0.99-0.66-1.82-0.35-2.74-0.13l-0.59 1.93c-2.73-0.41-5.51 1.14-8.12-0.46-2.56 2.36-6.34-0.08-9.14 2.2-1.04 0.84-3.2 0.3-4.59 0.38-1.58-0.98-2.84-1.87-4.58-1.78-1.25 0.07-2.66 0.7-3.66-0.69-1.15 1.95-2.39 0.46-3.64 0.15-0.62-0.15-1.44-0.17-1.97 0.11-4.27 2.26-9.15 2.22-13.57 3.79-1.99 0.71-3.82 1.46-5.85 1.09-2.15-2.35-5.28-2.11-7.78-3.36-1.41-0.7-2.65 0.75-4.07 1.25-0.95-1.18-2.55-1.05-3.72-1.95-2.68 2.51-5.17 0.8-7.68-0.36-0.78 1.23-2.1 1.36-2.99 0.71-1.46-1.07-2.77-0.62-4.12-0.16-3.25 1.09-7.98 0.95-11.41 0.72-4.48-0.31-9.05-2.52-13.57 0.28-1.42 0.88-3.09-0.17-4.43-0.81-0.82 0.54-1.19 1.34-2.2 1.27-1.16-0.07-2.33 0.15-3.49 0.15-1.04 0-1.31 1.43-2.53 1.19-1.12-0.22-2.24 0.02-3 1.06-0.73-0.7-1.55-1.5-2.41-0.3-0.8 1.12-2.27 0.03-3.05 1.19-0.54 0.8-1.94-1.05-2.42 0.6-1.51-1.69-3.42-0.64-5.14-0.67-1.83-0.04-4.01-0.42-5.4 0.42-1.82 1.09-3.21-0.12-4.76-0.05-1.51 0.07-2.19 1.41-3.49 1.38-1.41-1.31-3.13-1.39-4.45-0.39-1.55 1.18-3.39 1.16-4.68 0.74-2.73-0.9-5.65 0.02-7.92-1.5l-1.61 1.43c-0.86-0.53-1.83-0.98-2.92-1.21-3.57-0.78-7.1-0.63-10.64-0.26-1.4 0.15-2.49-0.3-3.6-0.87-1.87 1-3.7 1.19-5.27 1.52-2.06 0.44-4.02 1.38-6.03 2.11l-1.1-0.9-2.8 3.13-1.81 0.1c-0.61 0.03-0.6 1.16-1.36 0.86l-0.81-0.72q-1.9 1.89-4.34 2.69c0 0.62 0.2 1.34-0.7 1.57-3.29-1.42-6.65-0.63-10-0.22-0.84 1.72-1.45-0.43-2.28-0.13-1.02 0.36-1.68 1.37-3.02 1.27-1.04-0.08-1.78-0.61-2.65-0.85-1.07-0.29-2.33-0.07-3.47 0.14-1.11 0.21-1.77-0.67-2.65-0.84-2.34-0.45-4.74-1.36-7.1-0.6-1.95 0.62-3.38-1.12-5.16-0.76-1.7 0.34-2.7 2.16-4.56 2.24-0.48 0.02-1.01-0.06-1.3 0.49 0.28 1.19-0.69 1.74-1.28 2.48-1.26 0.66-2.94-0.31-4.07 1.23-0.32 0.44-1.81 0.59-2.33 0.24-2.59-1.79-5.75 0.34-8.35-1.42-0.79-0.54-1.79 0.28-2.45 1.01-4.35-1.74-5.67-1.78-10.47-1.43-1.64 0.12-3.34-0.62-4.97-0.97-0.27-0.6-0.05-1.39-1.13-1.72l-4.1 2.38c-0.93-0.24-1.31-1.33-2.41-0.89-0.27 0.27-0.61 0.61-1.13 1.13-0.37-1.45-1.48-1.1-2.43-0.96-2.03 0.3-3.72 1.48-5.58 2.23-2.06 0.83-4.61-0.6-6.6 1.24-0.39 0.36-1.5-0.03-1.85 0.33-2.02 2.12-4.11 0.82-6.22 0.12-0.85 1.57-2.2 1.91-3.33 0.93-2.04-1.79-3.25 0.52-4.83 0.8-1.84 0.32-3.45-2.13-4.98-0.54-1.28 1.33-2.9 0.27-4.49 1.56l-1.13 1.47c-0.64-0.38-0.96-1.11-1.92-0.86-2.11 2.12-5.02 4.04-7.86 3.17-2.34-0.71-3.82-0.27-5.75 0.5-2.06 0.82-4.17 1.45-6.5 1.48-2.03 0.02-4.01 0.13-6.11 1.06-2.06 0.91-4.66 0.51-6.56 2.44-0.48 0.49-1.9 0.64-2.66-0.37-0.39-0.52-0.91-0.24-1.13-0.26l-3.69 2.23c-2.57-1.21-5.11-1.98-7.88-1.63-1.36 0.17-2.72 0.18-3.99-0.48-1.13 1.47-2.79 0.54-4.16 0.93-3.57 1.02-7.03-1.14-11.6-0.13l-0.79 2.32c-1.14-2.4-2.94-2.14-4.44-2.6-2.58-0.77-5.28-0.68-7.89-1.24-3.12 1.91-6.62 1.08-9.79 1.58l-3.2-2.87c-2.81 0.14-5.76 0.81-8.11-1.54l-1.9 2.12c-3.19-0.13-6.58 1.07-9.89-0.48-2.06 1.2-2.03 1.09-3.79 0.57-1.19-0.35-2.13-1.34-3.52-1.18-2.78 0.32-5.63-0.03-8.32 0.99-0.1-0.48 0.15-1.05-0.92-1.58-2.03 1.4-4.19-0.78-6.57-0.54-1 0.59-1.32 1.94-2.87 2.24-1.91-1.7-4.14-1.72-6.71-0.76-3.22 1.21-6.36-2.02-9.71-0.57-1.4-1.5-3.45 0.1-4.62-0.68-1.92-1.28-3.13 1.11-4.74 0.37-1.56 1.54-3.63 1.06-5.33 1.31-1.93 1.63-3.73 3.1-5.78 1.87-0.95-0.36-0.8 0.8-1.59 0.17l-0.68-0.62c-0.53 0.62-0.98 1.4-2.79 0.78l-1.12-1.71 0.06 1.11c-5.37-0.18-9.78 1.57-12.77 5.66q-2.49-0.77-4.52 0.34c-2.81-1.4-5.52-1.22-8.16 0.45l-3.49-1.57c-3.49 0.92-6.35 1.66-8.6 3.4-0.77-0.53-1.1-1.24-1.88-1.06l-3.75 2.22c-3.11-1.58-5.99-0.32-8.66-0.57l-1.97 2.4c-1.79-0.92-3.19 0.62-4.6 1.08l-1.29-0.93-1.77 1.97c-2.34-2.21-4.4 0.19-6.96 0.54-2.5-3.29-6.67-3.51-10.37-4.38-2.88-0.67-6.1 0.62-9.09-0.64-0.26-0.11-0.8-0.07-0.94 0.11-1.18 1.52-3.35 0.88-4.36 2.32-0.73-0.41-1.21-0.68-1.67-0.94l-0.8 0.89-2.57-2.15-1.24 2.45c-1.48-0.79-1.65-2.02-2.34-2.52-3.68-2.37-7.8 0.11-11.41-1.24-4.24-1.58-7.79 1.56-11.95 1.01-0.98-2.71-4.76-0.88-5.74-3.59l-3.21 0.18c-1.28-1.75-3.73-1.9-5.11-3.72-1.64 0.38-3.48-0.44-5.03 1.17-0.51 0.53-2.33 0.65-2.83 0.19-1.75-1.63-3.98-0.5-5.95-1.41-1.72-0.8-4.21 0.04-6.29 0.16-1.43 1.82-3.66 1.86-5.41 2.84-1.94 1.08-4.29 0.58-6.35 1.72-1.73 0.95-4.29-0.59-5.95 1.39-0.51-0.36-0.85-1.06-2.26-0.73l-0.79 1.53c-2.33 0.98-4.2 0.08-5.81 1.54-0.78 0.7-2.92 0.86-3.78 0.28-1.78-1.19-3.48-0.59-5.21-0.58-2.33 0.02-4.66 0.23-6.99 0.36-1.81-1.61-3.93-1.91-6.27-1.69-2.97 0.28-5.96 0.36-8.84 0.51l-1.97-1.76-1.83 1.28c-0.52-2.38-2.47-0.56-3.65-1.42-0.32-0.55-0.06-1.36-0.42-1.49-3.48-0.14-6.38-0.64-8.31-2.35-5.03-1.18-9.05 1.77-13.51 1.37-4.51-0.4-5.23 2.07-9.57 2.69v-123.09h1912.91l0.09 24.53c-4.26-2.7-8.23 2.77-12.57 0.93z"/>
	</g>
</svg>