<?xml version="1.0" encoding="UTF-8"?>
<svg id="Layer_1" data-name="Layer 1" xmlns="http://www.w3.org/2000/svg" viewBox="0 0 1912.91 129.72">
  <defs>
    <style>
      .cls-1 {
        fill: #96d4d4;
      }
    </style>
  </defs>
  <path class="cls-1" d="M1900.34,104.25c-1.55-1.87-3.92-.56-5.77-1.2-.65.41-.94,1.16-1.93.94-1.88-2.08-4.91-1.87-7.29-3.12-.42.05-.5.97-1.25.26l-.97-1.2-1.55,2.6c-1.97-2.5-5.17-.13-6.89-2.41-1.07,1.41-3.19.13-4.21,1.64-.48-.41-.72-1.06-1.54-1.08-3.68-.07-6.89,1.83-10.28,2.42-2.52-2.39-6.31.04-8.83-2.81-2.01,2.98-5.39-.42-7.61,1.94-2.71-1.35-5.58-.52-7.71.73-2.63,1.54-5.62-.84-7.72,1.63l-1.69-1.31c-1.24.06-2.4,1.77-3.56.76-1.43-1.26-3.01-1.18-4.58-1.14-1.6.03-2.79-.87-3.8-1.68-1.45-1.15-2.48-2.82-4.48-1.01-2.48-1.77-5.07.74-7.61-.2-.71-.26-1.5-.15-2.29.44-1.13.85-2.45.21-4.01-.03l-1.42-2.47-1.43,2.09c-2.36,1.09-2.96-.99-4.26-.82-2.39,1.62-4.58.96-6.85-.42-.34.24-.73.76-1.1.74-4.44-.18-8.89-.45-13.96-.73l-1.06-2.04c-2.2.89-3.95,1.82-5.76.22-1.22-1.08-3.32.29-4.36-1.64-.87-1.63-3.51-.79-4.29-2.74-3.04-.31-5.65-2.92-9.1-1.34-1.73.79-4.12.82-5.58-.4-1.85-1.54-2.98.05-4.11.21l-5.35-2.29c-1.66,1.67-3.19.99-4.59-.32-1.67,1.17-3.41,1.55-4.97.33-.93-.72-1.85-.6-2.78-.62-3.41-.06-6.45-1.39-9.57-2.57l-1.33,1.09c-.53-.77-1.07-1.54-1.6-2.3l-8.17-.45-.59-1.69c-1.54-.74-1.76.73-2.74.55-.95.3-.96-1.28-1.95-1.09-.53-.51-1.17-.64-1.81-.36-4.87,2.11-9.65,1.19-14.56-.07-3.48-.89-7.28-1.34-10.75-.61-8.64,1.81-14.31-1.17-22.51-2.43-.67-.04-3.27.59-3.93.55-.35,1.43-2.15.74-2.98,1.88-2.25-.63-4.89.56-6.93-1.39-.54.28-.83.99-1.65.85-2.75-.47-5.42.04-7.93,1.1-1.49.63-3.23.69-4.27.11-3.59-2.01-7.11-1.25-10.26-.44-1.91-.15-2-2.18-3.81-2.22-1.65-.86-2.03,1.58-3.44,1.81-1.7-.09-3.39,0-5.01-.33-1.72-.34-2.87,1.24-4.66.87-2.69-.56-5.45-.45-7.48,1.72-2.08-1.69-4.01.07-5.95-.46-2.07-.57-4.13-.02-5.73,1.5-3.4.73-6.08-2.14-9.22-1.35-.39-.95-.06-1.72-.8-2.08-.95-.45-1.34.61-2.07.77-.54-1.15-1.62-.96-2.58-1.03-1.14-.08-2.28-.13-3.26-.18l-2.57-2.89c-1.32-.65-2.74.17-3.54-.84-1.3-1.65-3.22.81-4.4-.85-4.31,1.43-8.49,1.05-12.68-.64-.79-.32-1.85-.28-2.87.05-3.18,1.03-6.44,1.78-10.21,1.07-.51.67-1.11,1.46-1.45,1.91-2.12,0-3.81-.24-5.4.06-9.42,1.76-14.99,2.57-21.14,1.61-.49-.08-1.1-.26-1.48-.06-2.54,1.32-5.43,1.4-8.1,1.97-2.87.61-5.18,2.05-7.77,3.04-.99.38-1.55,1.13-2.4,1.51-3.71,1.67-8.06.62-11.69,2.7-3.41-2.22-7.4-.6-10.98-1.67l-1.73-1.93c-3.25-.18-6.57-.46-9.89-.52-3.35-.06-5.58-2.69-8.63-3.66l-2.99,2.42c-.62-1.62-2.54-1.18-3.26-2.56-4.85-.53-9.6-.77-14.03,1.94-.97.6-2.57.49-3.62-.52-1-.95-2.58-.93-3.22-.52-1.58,1.03-3.16.86-4.69.57-1.73-.32-3.12,1.09-4.63.75-2.82-.63-5.48.47-8.11.85-1.86.27-3.96.23-5.92,1.16-2.32,1.11-5.09,1.79-7.65,1.72-2.82-.07-5.82.71-8.62-1.19-.97-.66-3.09-.96-4.67.28-.92.72-2.2.17-3.32.05l-1.67-1.87c-1.27-.61-3.07.4-4-1.28-3.86-.78-7.49-2.54-11.5-2.75-1.09-.06-2.12.03-3.21-.81-1.33-1.02-2.92-.43-4.48.34-1.69.84-2.96-2.1-4.91-.98-.28.16-.48.59-.75.64-2.84.44-5.76,1.42-8.53,1.1-4.59-.52-9.15-1.52-13.74-2.22-5.81-.88-11.86.42-17.51-1.95-.58-.24-1.56-.4-1.94-.09-1.89,1.53-4.26.86-6.36,1.45-2.12.6-4.61-.1-6.94-.22-1.48-.51-2.25-2.24-4.05-2.25-1.66,0-3.45-.59-4.96-.15-1.79.52-2.97-2.82-4.74-.49-1.32-2.17-2.76-.06-4.12-.05-5.55.06-10.84-1.29-15.92-3.21-1.24-.47-2.42-.95-3.64-.88-2.67.15-5.09-.77-7.37-1.79-2.22-1-4.16-1.02-6.45-.42-7.97,2.11-6.92,2.87-15.28-.21-3.03-1.12-5.79-3.31-9.73-2.64-.34-.81-.65-1.55-.9-2.14-2.13,1.31-4.02,1.09-5.72.03-1.27-.79-2.88-.91-3.75-.49-2.35,1.14-4.77.28-7.03.66-.67,2.88-3.04,3.46-5.12,3.45-2.61-.02-5.05.38-7.4,1.33-.67.27-1.25.31-1.86.26-2.49-.22-4.15,1.34-5.91,2.69-2.23-.04-4.53-.76-6.86,1.04-.37-1.86-1.69-1.4-2.79-1.59-1.25-.21-2.93.74-3.4.4-1.26-.92-2.53-.57-3.76-.75-1.31-.19-2.66-.23-3.99-.23-3.09-.01-5.84-1.95-8.99-1.56-1.35-1.78-3.57-1.55-5-1.09-3.12,1-6.12.34-9.17.36-.65,0-1.32-.08-1.93.08-3.39.93-6.82,1.62-10.33,1.22-4.73-.54-9.4,1.23-14.12.24-.64-.13-.84.58-1.25.62-2.88.29-5.26,1.81-8.47,3.06-2.31-1-6.2-2.59-7.02-3.39-2.68-1.72-5.43,1.79-8.08-.36-2.24,1.65-5.11-.6-7.44,1.22-.46.36-1.78.02-2.76-.41-3.2-1.4-6.62-1.31-10-.73-1.99.34-3.96.79-5.94,1.2-1.94-2.26-4.1-.37-6.16-.34-3.17-2.13-6.77-2.64-10.32-2.55-1.28-1.33-2.58-1.57-4.25-1.71-1.52-.12-3.26-1.22-4.56-2.04-1.76-1.12-3.5-.49-5.11-1.15-.92-1.19-2.38-1.43-3.59-2.16l-1.2.94c-.56-.21-.67-1.13-2.01-.93-2.61,2.25-6.5,2.24-10.24,3.41l-1.53-2.18c-1.98-.11-4.22.42-5.16-.45-1.21-1.13-3.06-.29-3.81-1.82-1.08.75-2.29.71-3.53.6-1.49-.13-2.99-.17-4.49-.26-.63-.04-.76,1.03-1.73.6-.17-.03-.14-.98-.81-.45-.64.8.22,2.05-1.26,2.88-4.71-2.16-9.88-3.9-15.46-4.84-1.48,1.44-3.39.22-5.27.54-.62-.92-1.09-1.6-1.57-2.31-3.63.82-6.57-1.94-9.98-1.34-.28-.8-.48-1.38-.69-1.96-.61-.26-1.19-.37-1.6.31.36.52,1.04.87.78,1.88-.19.21-.52.55-.83.9-1.1,1.24-2.84-.15-3.67.58-1.42,1.26-2.87.79-4.21.57-1.26-.21-2.41,1.09-3.37.34-1.43-1.13-2.87.46-3.76-.02-3.77-2.01-7.05-.17-10.84.92.06-1.7-1.55-1.2-2.47-1.67-1.91-.98-4.14-1.33-6.24-1.94-2.76,1.99-5.76.16-8.63.52-1.04.13-1.23-1.74-2.52-1.07l-2.08,1.87c-3.54-.67-7.49.4-11.12-1.43l-1.96,1.75c-.65-1.75-2.49-1.62-3.37-1.17-2.42,1.23-4.8.37-7.18.51-2.87.17-5.82-1.2-8.65.46-.43.25-1.57.09-1.83-.28-.87-1.22-2.1-.98-3.16-.91-2.74.18-4.93-.97-6.89-2.46-1.24.19-2.1.86-3.29.97-1.84.17-3.41-1.36-5.23-.56-1.13-1.77-3.43-.23-4.69-1.69-.76-.89-1.91-.62-2.79-.49-1.21.18-2.24,1.19-3.65.75-1.07-.33-2.34.27-3.31-.58-.85-.75-1.91.06-2.97-.65-.95-.65-2.7-.59-3.93.54l-1.61-1.98c-.44.34-.89.95-1.2.88-2.2-.45-4.51.44-6.69-1.01-1.23-.82-3.16-1.01-4.63-.03-.99.66-1.82.35-2.74.13l-.59-1.93c-2.73.41-5.51-1.14-8.12.46-2.56-2.36-6.34.08-9.14-2.2-1.04-.84-3.2-.3-4.59-.38-1.58.98-2.84,1.87-4.58,1.78-1.25-.07-2.66-.7-3.66.69-1.15-1.95-2.39-.46-3.64-.15-.62.15-1.44.17-1.97-.11-4.26-2.26-9.14-2.22-13.56-3.79-1.99-.71-3.82-1.46-5.85-1.09-2.15,2.35-5.28,2.11-7.78,3.36-1.41.7-2.65-.75-4.07-1.25-.95,1.18-2.55,1.05-3.72,1.95-2.68-2.51-5.17-.8-7.68.36-.78-1.23-2.1-1.36-2.99-.71-1.46,1.07-2.77.62-4.12.16-3.25-1.09-7.98-.95-11.41-.72-4.48.31-9.05,2.52-13.57-.28-1.42-.88-3.09.17-4.43.81-.82-.54-1.19-1.34-2.2-1.27-1.16.07-2.33-.15-3.49-.15-1.04,0-1.31-1.43-2.53-1.19-1.12.22-2.24-.02-3-1.06-.73.7-1.55,1.5-2.41.3-.8-1.12-2.27-.03-3.05-1.19-.54-.8-1.94,1.05-2.42-.6-1.51,1.69-3.42.64-5.14.67-1.83.04-4.01.42-5.4-.42-1.82-1.09-3.21.12-4.76.05-1.51-.07-2.19-1.41-3.49-1.38-1.41,1.31-3.13,1.39-4.45.39-1.55-1.18-3.39-1.16-4.68-.74-2.73.9-5.65-.02-7.92,1.5l-1.61-1.43c-.86.53-1.83.98-2.92,1.21-3.57.78-7.1.63-10.64.26-1.4-.15-2.49.3-3.6.87-1.87-1-3.7-1.19-5.27-1.52-2.06-.44-4.02-1.38-6.03-2.11l-1.1.9-2.8-3.13-1.81-.1c-.61-.03-.6-1.16-1.36-.86l-.81.72q-1.9-1.89-4.34-2.69c0-.62.2-1.34-.7-1.57-3.29,1.42-6.65.63-10,.22-.84-1.72-1.45.43-2.28.13-1.02-.36-1.68-1.37-3.02-1.27-1.04.08-1.78.61-2.65.85-1.07.29-2.33.07-3.47-.14-1.11-.21-1.77.67-2.65.84-2.34.45-4.74,1.36-7.1.6-1.95-.62-3.38,1.12-5.15.76-1.7-.34-2.7-2.16-4.56-2.24-.48-.02-1.01.06-1.3-.49.28-1.19-.69-1.74-1.28-2.48-1.26-.66-2.94.31-4.07-1.23-.32-.44-1.81-.59-2.33-.24-2.59,1.79-5.75-.34-8.35,1.42-.79.54-1.79-.28-2.45-1.01-4.35,1.74-5.67,1.78-10.47,1.43-1.64-.12-3.34.62-4.97.97-.27.6-.05,1.39-1.13,1.72l-4.1-2.38c-.93.24-1.31,1.33-2.41.89-.27-.27-.61-.61-1.13-1.13-.37,1.45-1.48,1.1-2.43.96-2.03-.3-3.72-1.48-5.58-2.23-2.06-.83-4.61.6-6.6-1.24-.39-.36-1.5.03-1.85-.33-2.02-2.12-4.11-.82-6.22-.12-.85-1.57-2.2-1.91-3.33-.93-2.04,1.79-3.25-.52-4.83-.8-1.84-.32-3.45,2.13-4.98.54-1.28-1.33-2.9-.27-4.49-1.56l-1.13-1.47c-.64.38-.96,1.11-1.92.86-2.11-2.12-5.02-4.04-7.86-3.17-2.34.71-3.82.27-5.75-.5-2.06-.82-4.17-1.45-6.5-1.48-2.03-.02-4.01-.13-6.11-1.06-2.06-.91-4.66-.51-6.56-2.44-.48-.49-1.9-.64-2.66.37-.39.52-.91.24-1.13.26l-3.69-2.23c-2.57,1.21-5.11,1.98-7.88,1.63-1.36-.17-2.72-.18-3.99.48-1.13-1.47-2.79-.54-4.16-.93-3.57-1.02-7.03,1.14-11.6.13l-.79-2.32c-1.14,2.4-2.94,2.14-4.44,2.6-2.58.77-5.28.68-7.89,1.24-3.12-1.91-6.62-1.08-9.79-1.58l-3.2,2.87c-2.81-.14-5.76-.81-8.11,1.54l-1.9-2.12c-3.19.13-6.58-1.07-9.89.48-2.06-1.2-2.03-1.09-3.79-.57-1.19.35-2.13,1.34-3.51,1.18-2.78-.32-5.63.03-8.32-.99-.1.48.15,1.05-.92,1.58-2.03-1.4-4.19.78-6.57.54-1-.59-1.32-1.94-2.87-2.24-1.91,1.7-4.14,1.72-6.71.76-3.22-1.21-6.36,2.02-9.71.57-1.4,1.5-3.45-.1-4.62.68-1.92,1.28-3.13-1.11-4.74-.37-1.56-1.54-3.63-1.06-5.33-1.31-1.93-1.63-3.73-3.1-5.78-1.87-.95.36-.8-.8-1.59-.17l-.68.62c-.53-.62-.98-1.4-2.79-.78l-1.12,1.71.06-1.11c-5.37.18-9.78-1.57-12.77-5.66q-2.49.77-4.52-.34c-2.81,1.4-5.52,1.22-8.16-.45l-3.49,1.57c-3.49-.92-6.35-1.66-8.6-3.4-.77.53-1.1,1.24-1.88,1.06l-3.75-2.22c-3.11,1.58-5.99.32-8.66.57l-1.97-2.4c-1.79.92-3.19-.62-4.6-1.08l-1.29.93-1.77-1.97c-2.34,2.21-4.4-.19-6.96-.54-2.5,3.29-6.67,3.51-10.37,4.38-2.88.67-6.1-.62-9.09.64-.26.11-.8.07-.94-.11-1.18-1.52-3.35-.88-4.36-2.32-.73.41-1.21.68-1.67.94l-.8-.89-2.57,2.15-1.24-2.45c-1.48.79-1.65,2.02-2.34,2.52-3.68,2.37-7.8-.11-11.41,1.24-4.24,1.58-7.79-1.56-11.95-1.01-.98,2.71-4.76.88-5.74,3.59l-3.21-.18c-1.28,1.75-3.73,1.9-5.11,3.72-1.64-.38-3.48.44-5.03-1.17-.51-.53-2.33-.65-2.83-.19-1.75,1.63-3.97.5-5.94,1.41-1.72.8-4.21-.04-6.29-.16-1.43-1.82-3.66-1.86-5.41-2.84-1.94-1.08-4.29-.58-6.35-1.72-1.73-.95-4.29.59-5.95-1.39-.51.36-.85,1.06-2.26.73l-.79-1.53c-2.33-.98-4.2-.08-5.81-1.54-.78-.7-2.92-.86-3.78-.28-1.78,1.19-3.48.59-5.21.58-2.33-.02-4.66-.23-6.99-.36-1.81,1.61-3.93,1.91-6.27,1.69-2.97-.28-5.96-.36-8.84-.51l-1.97,1.76-1.83-1.28c-.52,2.38-2.47.56-3.65,1.42-.32.55-.06,1.36-.42,1.49-3.48.14-6.38.64-8.31,2.35-5.03,1.18-9.05-1.77-13.51-1.37-4.51.4-5.23-2.07-9.57-2.69v123.09h1912.82l.09-24.53c-4.26,2.7-8.23-2.77-12.57-.93h0Z"/>
</svg>